<svg width="126" height="118" viewBox="0 0 126 118" fill="none" xmlns="http://www.w3.org/2000/svg">
<path d="M6.16181 31.5813C7.17121 21.9438 7.67591 17.1251 9.52916 13.3228C12.2109 7.82064 16.8906 3.57213 22.5962 1.45975C26.539 0 31.3421 0 40.9482 0H89.4536C101.071 0 106.879 0 111.313 1.90325C117.734 4.65896 122.619 10.1357 124.661 16.8665C126.071 21.5152 125.461 27.3427 124.24 38.9976L119.312 86.0502C118.302 95.6877 117.798 100.506 115.945 104.309C113.263 109.811 108.583 114.059 102.878 116.172C98.9347 117.632 94.1316 117.632 84.5255 117.632H36.0201C24.403 117.632 18.5945 117.632 14.1603 115.728C7.73995 112.973 2.85461 107.496 0.812806 100.765C-0.597373 96.1164 0.0129774 90.2889 1.23368 78.634L6.16181 31.5813Z" fill="#27221F"/>
</svg>
